<svg width="153" height="153" viewBox="0 0 153 153" fill="none" xmlns="http://www.w3.org/2000/svg">
<rect width="152.219" height="152.219" rx="76.1094" fill="#D9D9D9"/>
<g clip-path="url(#clip0_279_6761)">
<path d="M51.7656 107.177C51.7656 100.585 54.3628 94.2627 58.9857 89.6013C63.6086 84.9398 69.8786 82.3211 76.4164 82.3211C82.9542 82.3211 89.2243 84.9398 93.8472 89.6013C98.4701 94.2627 101.067 100.585 101.067 107.177H94.9045C94.9045 102.233 92.9567 97.4914 89.4895 93.9953C86.0223 90.4992 81.3198 88.5351 76.4164 88.5351C71.5131 88.5351 66.8106 90.4992 63.3434 93.9953C59.8762 97.4914 57.9283 102.233 57.9283 107.177H51.7656ZM76.4164 79.214C66.2018 79.214 57.9283 70.8717 57.9283 60.5719C57.9283 50.2721 66.2018 41.9297 76.4164 41.9297C86.6311 41.9297 94.9045 50.2721 94.9045 60.5719C94.9045 70.8717 86.6311 79.214 76.4164 79.214ZM76.4164 73C83.2262 73 88.7418 67.4384 88.7418 60.5719C88.7418 53.7053 83.2262 48.1437 76.4164 48.1437C69.6066 48.1437 64.091 53.7053 64.091 60.5719C64.091 67.4384 69.6066 73 76.4164 73Z" fill="#3D3D3D"/>
</g>
<defs>
<clipPath id="clip0_279_6761">
<rect width="73.9524" height="74.5687" fill="white" transform="translate(39.4375 38.8242)"/>
</clipPath>
</defs>
</svg>
